<svg width="16" height="16" viewBox="0 0 16 16" fill="none" xmlns="http://www.w3.org/2000/svg">
<path d="M13.6866 4.35449L11.6866 6.35449C11.6402 6.40102 11.5852 6.43793 11.5245 6.46312C11.4639 6.48831 11.3989 6.50127 11.3332 6.50127C11.2676 6.50127 11.2026 6.48831 11.1419 6.46312C11.0813 6.43793 11.0262 6.40102 10.9799 6.35449C10.9334 6.30806 10.8966 6.25293 10.8714 6.19224C10.8463 6.13156 10.8333 6.06651 10.8333 6.00083C10.8333 5.93514 10.8463 5.87009 10.8714 5.80941C10.8966 5.74873 10.9334 5.69359 10.9799 5.64716L12.1266 4.50049H3.99991C3.54058 4.50049 3.16658 4.87449 3.16658 5.33383V7.33316C3.16658 7.46577 3.1139 7.59295 3.02013 7.68671C2.92636 7.78048 2.79918 7.83316 2.66658 7.83316C2.53397 7.83316 2.40679 7.78048 2.31302 7.68671C2.21925 7.59295 2.16658 7.46577 2.16658 7.33316V5.33383C2.16693 4.8477 2.3602 4.38159 2.70394 4.03785C3.04768 3.69411 3.51379 3.50085 3.99991 3.50049H12.1259L10.9792 2.35383C10.8854 2.26003 10.8327 2.13281 10.8327 2.00016C10.8327 1.86751 10.8854 1.74029 10.9792 1.64649C11.073 1.5527 11.2003 1.5 11.3329 1.5C11.4656 1.5 11.5928 1.5527 11.6866 1.64649L13.6866 3.64649C13.733 3.69293 13.7699 3.74806 13.795 3.80874C13.8202 3.86943 13.8331 3.93447 13.8331 4.00016C13.8331 4.06585 13.8202 4.13089 13.795 4.19158C13.7699 4.25226 13.733 4.30806 13.6866 4.35449ZM12.6659 8.16716C12.5333 8.16716 12.4061 8.21984 12.3124 8.31361C12.2186 8.40737 12.1659 8.53455 12.1659 8.66716V10.6665C12.1659 11.1258 11.7919 11.4998 11.3326 11.4998H3.87324L5.01991 10.3532C5.11371 10.2594 5.1664 10.1321 5.1664 9.99949C5.1664 9.86684 5.11371 9.73962 5.01991 9.64583C4.92611 9.55203 4.79889 9.49933 4.66624 9.49933C4.53359 9.49933 4.40637 9.55203 4.31258 9.64583L2.31258 11.6458C2.26611 11.6923 2.22925 11.7474 2.20411 11.8081C2.17896 11.8688 2.16602 11.9338 2.16602 11.9995C2.16602 12.0652 2.17896 12.1302 2.20411 12.1909C2.22925 12.2516 2.26611 12.3067 2.31258 12.3532L4.31258 14.3532C4.35891 14.3997 4.41397 14.4366 4.4746 14.4618C4.53524 14.487 4.60025 14.4999 4.66591 14.4999C4.73157 14.4999 4.79658 14.487 4.85721 14.4618C4.91785 14.4366 4.97291 14.3997 5.01924 14.3532C5.06571 14.3067 5.10256 14.2516 5.12771 14.1909C5.15286 14.1302 5.1658 14.0652 5.1658 13.9995C5.1658 13.9338 5.15286 13.8688 5.12771 13.8081C5.10256 13.7474 5.06571 13.6923 5.01924 13.6458L3.87258 12.4992H11.3319C11.818 12.4988 12.2841 12.3055 12.6279 11.9618C12.9716 11.6181 13.1649 11.1519 13.1652 10.6658V8.66649C13.1652 8.53388 13.1126 8.40671 13.0188 8.31294C12.925 8.21917 12.7978 8.16649 12.6652 8.16649L12.6659 8.16716Z" fill="#026980"/>
</svg>
