<svg width="49" height="48" viewBox="0 0 49 48" fill="none" xmlns="http://www.w3.org/2000/svg">
<rect x="0.314453" width="47.9598" height="48" rx="23.9799" fill="#F0F2F5"/>
<g clip-path="url(#clip0_7_1025)">
<path d="M30.1228 14.8333H18.4659C17.3622 14.8346 16.304 15.274 15.5236 16.0552C14.7431 16.8363 14.3041 17.8953 14.3027 19V29C14.3041 30.1046 14.7431 31.1637 15.5236 31.9448C16.304 32.7259 17.3622 33.1653 18.4659 33.1666H30.1228C31.2266 33.1653 32.2847 32.7259 33.0652 31.9448C33.8456 31.1637 34.2847 30.1046 34.286 29V19C34.2847 17.8953 33.8456 16.8363 33.0652 16.0552C32.2847 15.274 31.2266 14.8346 30.1228 14.8333ZM18.4659 16.5H30.1228C30.6214 16.501 31.1083 16.6512 31.5208 16.9315C31.9333 17.2117 32.2526 17.6091 32.4375 18.0725L26.0612 24.455C25.592 24.9227 24.9567 25.1854 24.2944 25.1854C23.6321 25.1854 22.9968 24.9227 22.5275 24.455L16.1512 18.0725C16.3362 17.6091 16.6554 17.2117 17.068 16.9315C17.4805 16.6512 17.9673 16.501 18.4659 16.5ZM30.1228 31.5H18.4659C17.8034 31.5 17.1681 31.2366 16.6996 30.7677C16.2312 30.2989 15.968 29.663 15.968 29V20.25L21.3502 25.6333C22.1317 26.4135 23.1905 26.8517 24.2944 26.8517C25.3982 26.8517 26.457 26.4135 27.2386 25.6333L32.6207 20.25V29C32.6207 29.663 32.3576 30.2989 31.8891 30.7677C31.4207 31.2366 30.7853 31.5 30.1228 31.5Z" fill="black"/>
</g>
<defs>
<clipPath id="clip0_7_1025">
<rect width="19.9833" height="20" fill="white" transform="translate(14.3027 14)"/>
</clipPath>
</defs>
</svg>
