<svg width="49" height="48" viewBox="0 0 49 48" fill="none" xmlns="http://www.w3.org/2000/svg">
<rect x="0.255859" width="47.9598" height="48" rx="23.9799" fill="#F0F2F5"/>
<g clip-path="url(#clip0_7_1030)">
<path d="M33.0227 25.3851L31.4407 19.6884C30.977 18.0195 29.9692 16.5536 28.5776 15.5238C27.1859 14.4939 25.4902 13.9592 23.76 14.0046C22.0299 14.05 20.3645 14.6729 19.0287 15.7744C17.6928 16.8758 16.7632 18.3925 16.3875 20.0834L15.1627 25.5959C15.0274 26.205 15.0305 26.8368 15.1718 27.4445C15.3131 28.0522 15.589 28.6205 15.9791 29.1072C16.3693 29.5939 16.8636 29.9868 17.4257 30.2567C17.9878 30.5266 18.6033 30.6668 19.2268 30.6667H20.1543C20.3454 31.6086 20.856 32.4555 21.5996 33.0637C22.3431 33.672 23.2739 34.0042 24.2342 34.0042C25.1946 34.0042 26.1254 33.672 26.8689 33.0637C27.6125 32.4555 28.1231 31.6086 28.3142 30.6667H29.0119C29.6537 30.6668 30.2868 30.5183 30.8618 30.2329C31.4368 29.9476 31.9381 29.533 32.3265 29.0216C32.7149 28.5103 32.9799 27.9159 33.1008 27.2851C33.2217 26.6543 33.1945 26.004 33.0227 25.3851ZM24.2342 32.3334C23.7195 32.3313 23.2179 32.17 22.7982 31.8717C22.3785 31.5733 22.0611 31.1525 21.8895 30.6667H26.579C26.4074 31.1525 26.09 31.5733 25.6703 31.8717C25.2506 32.17 24.749 32.3313 24.2342 32.3334ZM31.0002 28.0126C30.7682 28.3206 30.4676 28.5703 30.1223 28.7417C29.777 28.9131 29.3965 29.0016 29.0111 29.0001H19.2268C18.8527 29 18.4835 28.9159 18.1463 28.7539C17.8091 28.5919 17.5125 28.3562 17.2785 28.0641C17.0445 27.7721 16.879 27.4312 16.7943 27.0666C16.7095 26.702 16.7077 26.323 16.7888 25.9576L18.0128 20.4442C18.3078 19.1161 19.038 17.9247 20.0873 17.0596C21.1365 16.1945 22.4446 15.7052 23.8036 15.6696C25.1626 15.6339 26.4945 16.054 27.5875 16.863C28.6806 17.6719 29.4721 18.8234 29.8362 20.1342L31.4182 25.8309C31.5228 26.202 31.5394 26.5925 31.4669 26.9712C31.3943 27.3499 31.2345 27.7064 31.0002 28.0126Z" fill="#151515"/>
</g>
<defs>
<clipPath id="clip0_7_1030">
<rect width="19.9833" height="20" fill="white" transform="translate(14.2441 14)"/>
</clipPath>
</defs>
</svg>
